<?xml version="1.0" encoding="utf-8"?>
<!-- Generator: Adobe Illustrator 23.0.1, SVG Export Plug-In . SVG Version: 6.00 Build 0)  -->
<svg version="1.1" id="Layer_1" xmlns="http://www.w3.org/2000/svg" xmlns:xlink="http://www.w3.org/1999/xlink" x="0px" y="0px"
	 viewBox="0 0 1024 1024" style="enable-background:new 0 0 1024 1024;" xml:space="preserve">
<style type="text/css">
	.st0{clip-path:url(#Mask_1_);}
	.st1{fill:url(#SVGID_1_);}
	.st2{fill:none;}
	.st3{fill:#FFFFFF;}
</style>
<g>
	<defs>
		<path id="Mask" d="M844,1024H180C80.6,1024,0,943.4,0,844V180C0,80.6,80.6,0,180,0h664c99.4,0,180,80.6,180,180v664
			C1024,943.4,943.4,1024,844,1024z"/>
	</defs>
	<clipPath id="Mask_1_">
		<use xlink:href="#Mask"  style="overflow:visible;"/>
	</clipPath>
	<g id="Background" class="st0">
		
			<linearGradient id="SVGID_1_" gradientUnits="userSpaceOnUse" x1="512" y1="-1436" x2="512" y2="-412" gradientTransform="matrix(1 0 0 -1 0 -412)">
			<stop  offset="0" style="stop-color:#020094"/>
			<stop  offset="1" style="stop-color:#2A3EFF"/>
		</linearGradient>
		<rect class="st1" width="1024" height="1024"/>
	</g>
	<g id="Logo" class="st0">
		<path id="Moon_Fill_1_" class="st2" d="M640.3,669.8l78.2-119.2c0,0,24.2,18.1,39.6,18.1c16.8,0,38.3-18.1,38.3-18.1l105.1,162.5
			c30.9-59.8,47.3-125.6,47.3-197.4c0-241.7-196.1-437.5-437.5-437.5S74.9,273,74.9,514.4c0,183.6,113.8,340.1,274.3,404.6
			l229-357.6L640.3,669.8z"/>
		<path id="MoonAndMountains" class="st3" d="M953.5,515.7c0-243.7-198.4-441.8-441.8-441.8c-118.2,0-229,45.7-312.2,128.9
			C116.5,285.7,70.5,396.5,70.5,514.4c0,89.6,26.9,175.9,77.9,249.1c49.4,71.5,118.5,126.9,199.1,159.5l3.4,1.3l51.4-79.9
			c59.4-88.6,153.1-223.6,174.6-231.7c11.1-0.7,23.2,24.5,55.7,68.5L455.9,949.8h0.3c43-62.4,240.1-346.1,268.9-367.6
			c11.8,4.7,22.8,9.4,32.9,9.4c9.7,0,17.5-3.7,31.6-9.4c19.8,16.5,66.1,68.5,112.5,141c7.1-13.1,13.1-27.2,18.5-41.3
			C942.4,629.8,953.5,573.8,953.5,515.7z M797.7,543.9l-3.7,3.4c-0.3,0.3-20.8,16.8-35.6,16.8c-11.4,0-30.6-12.4-36.9-17.1l-3.7-3
			l-76.9,117.2L578.8,553L347.5,913.5c-77.9-31.9-144-85.6-191.7-154.8c-49.7-72.2-76.2-156.5-76.2-244.4
			c0-115.8,45-224.3,126.2-305.5s190-126.2,305.9-126.2c238.7,0,433.1,194.4,433.1,433.1c0,66.5-14.4,129.9-43.6,188.7L797.7,543.9z
			"/>
		<path id="ClockHands" class="st3" d="M525.1,554l-230.3,79.2l174.9-142.4L512.3,100l44.3,412C556.7,531.5,543.6,548.6,525.1,554
			L525.1,554"/>
	</g>
</g>
</svg>
