<?xml version="1.0" encoding="utf-8"?>
<!-- Generator: Adobe Illustrator 23.0.1, SVG Export Plug-In . SVG Version: 6.00 Build 0)  -->
<svg version="1.1" id="Layer_1" xmlns="http://www.w3.org/2000/svg" xmlns:xlink="http://www.w3.org/1999/xlink" x="0px" y="0px"
	 viewBox="0 0 345 309" style="enable-background:new 0 0 345 309;" xml:space="preserve">
<style type="text/css">
	.st0{display:none;fill:#FFFFFF;}
</style>
<path id="Fill" class="st0" d="M197.2,205.4l26.9-41c0,0,8.3,6.2,13.6,6.2c5.8,0,13.2-6.2,13.2-6.2l36.1,55.9
	c10.6-20.6,16.3-43.2,16.3-67.9C303.3,69.3,236,2,153,2S3,68.9,3,152c0,63.1,39.1,116.9,94.2,139.1l78.7-122.9L197.2,205.4z"/>
<path id="Lines" d="M287.5,220.6c10.8-21.1,16.6-44.8,16.6-68.6c0-83-67.6-150.5-150.8-150.5S2.5,69,2.5,152
	c0,30.6,9.2,60.1,26.5,85.2c16.9,24.5,40.3,43.3,67.8,54.4L86.9,307c0,0,79.4-121,88.5-121.1c2.3,0,9.7,9.7,19.1,23.5L131.1,306
	c0,0,84.2-122.2,95.3-130.6c4,1.6,7.8,3.2,11.3,3.2c3.3,0,6-1.3,10.8-3.2C266.9,190.6,343,306,343,306L287.5,220.6z M251,164.4
	c0,0-7.5,6.2-13.2,6.2c-5.3,0-13.6-6.2-13.6-6.2l-26.9,41L176,168.3L97.3,290.6c-27.4-11-50.7-29.7-67.5-54.1
	C12.6,211.6,3.5,182.4,3.5,152C3.5,69.5,70.7,2.5,153.3,2.5s149.8,67,149.8,149.5c0,23.5-5.6,46.8-16.2,67.7L251,164.4z
	 M156.2,168.2l0.2,0.3L77,195.4l60.1-49L151.7,12l14.9,137h-0.3c0.5,1.5,0.7,3,0.7,4.6C166.9,160.4,162.4,166.3,156.2,168.2z"/>
</svg>
