<?xml version="1.0" encoding="utf-8"?>
<!-- Generator: Adobe Illustrator 23.0.1, SVG Export Plug-In . SVG Version: 6.00 Build 0)  -->
<svg version="1.1" id="Layer_1" xmlns="http://www.w3.org/2000/svg" xmlns:xlink="http://www.w3.org/1999/xlink" x="0px" y="0px"
	 viewBox="0 0 345 309" style="enable-background:new 0 0 345 309;" xml:space="preserve">
<style type="text/css">
	.st0{display:none;fill:#FFFFFF;}
</style>
<path id="Moon_Fill_1_" class="st0" d="M197.2,205.4l26.9-41c0,0,8.3,6.2,13.6,6.2c5.8,0,13.2-6.2,13.2-6.2l36.1,55.9
	c10.6-20.6,16.3-43.2,16.3-67.9C303.3,69.3,236,2,153,2S3,68.9,3,152c0,63.1,39.1,116.9,94.2,139.1l78.7-122.9L197.2,205.4z"/>
<path d="M86.2,290.6c0,0-0.2,0-0.5,0s-0.7,0-1.2,0c0,0.5,0,0.8,0,1.1s0,0.6,0,1s0,0.8,0,1.2s0,0.7,0,0.8H84c0-0.1,0-0.4,0-0.8
	s0-0.8,0-1.2c0-0.4,0-0.7,0-1c0-0.2,0-0.6,0-1.1c-0.5,0-0.9,0-1.2,0s-0.5,0-0.5,0v-0.5c0.2,0,0.5,0,0.9,0c0.3,0,0.7,0,1.1,0
	c0.6,0,1,0,1.4,0s0.6,0,0.6,0L86.2,290.6L86.2,290.6z M92.6,294.7l-0.6,0.1l-0.7-3.8l0,0c-0.1,0.2-0.3,0.6-0.6,1.3
	c-0.3,0.7-0.6,1.4-0.9,2h-0.5c-0.3-0.6-0.6-1.3-0.9-2s-0.5-1.1-0.6-1.3l0,0c0,0.1-0.1,0.5-0.3,1.3s-0.3,1.6-0.5,2.5l-0.5-0.1
	c0.2-1,0.4-2,0.6-2.9s0.3-1.5,0.3-1.6l0.5-0.1c0,0,0.2,0.4,0.5,1.1s0.7,1.5,1.1,2.4l0,0c0.3-0.7,0.6-1.4,1-2.2s0.5-1.2,0.5-1.2h0.5
	c0,0,0.1,0.5,0.3,1.5C92.1,292.6,92.3,293.6,92.6,294.7z"/>
<path d="M81.5,99l-8.9,3.5c-0.7-1.1-2.2-2.9-4.3-5.7c-2.1-2.7-5.4-6.9-9.7-12.6l0.2-0.6c0.6-0.1,1.5-0.5,2.5-1s1.9-1.1,2.6-1.8
	c0.7-0.7,1.3-1.5,1.6-2.3c0.4-0.8,0.6-1.8,0.6-3.1c0-1.2-0.3-2.3-0.9-3.2s-1.5-1.6-2.5-2.1c-0.9-0.4-1.8-0.6-2.7-0.7
	s-1.8-0.1-2.7-0.1c-0.5,0-0.9,0-1.2,0s-0.5,0-0.6,0c0,2.3,0,4.7,0,7.1s0,4.6,0,6.6c0,3.2,0,6.7,0,10.4c0,3.8,0,6.5,0.1,8.2h-9.7
	c0-1.5,0-3.8,0.1-6.8s0-7.4,0-13.3c0-1.6,0-3.8,0-6.7c0-2.9,0-7.1-0.1-12.4c0.6,0,1.7,0,3.5-0.1c1.8,0,3.5-0.1,5-0.1
	c2.9,0,5.4,0.1,7.6,0.3s4.2,0.6,6.1,1.2c2.7,0.9,4.7,2.2,6.1,4s2,3.7,2,5.9c0,2.5-0.7,4.6-2.1,6.4s-2.8,3.1-4.2,4v0.2
	c2,2.6,4.2,5.2,6.5,7.8C78.5,94.7,80.3,97,81.5,99z M96.3,101.7h-9.7c0-1.7,0-4.1,0.1-7.2c0-3.1,0-7.4,0-12.8c0-2.3,0-5.1,0-8.6
	s-0.1-7-0.1-10.6h9.7c0,2.7,0,5.8-0.1,9.2s0,6.6,0,9.3c0,5.5,0,9.8,0,12.8S96.3,99.4,96.3,101.7z M134.7,70c-0.6,0-1.9,0-3.9,0
	c-2.1,0-4.2,0-6.3,0c-1.3,0-2.8,0-4.3,0c-1.6,0-2.9,0-3.9,0c0,1.4,0,3.1,0,4.9s0,3.4,0,4.9c0.7,0,1.8,0,3.2,0s2.8,0,3.8,0
	c2.3,0,4.6,0,6.9,0s3.7,0,4.2,0V86c-0.6,0-2.1,0-4.7,0s-4.8,0-6.5,0c-0.9,0-2.1,0-3.5,0s-2.4,0-3.1,0c0,3.2,0,6.1,0,8.7
	s0,4.9,0.1,6.9H107c0-1.4,0-3.5,0.1-6.4s0-7.4,0-13.6c0-2.3,0-5.1,0-8.6s-0.1-7-0.1-10.6c1.3,0,3.1,0,5.5,0s4.9,0,7.7,0
	c3.1,0,6.2,0,9.2,0s4.8,0,5.4,0L134.7,70L134.7,70z M172.8,70.5c-0.8,0-2.4,0-4.7,0s-5.1,0-8.4,0c0,3.1-0.1,5.5-0.1,7.4s0,4.3,0,7.2
	c0,3.3,0,6.6,0,9.7s0.1,5.4,0.1,7H150c0-1.5,0-3.7,0.1-6.7c0-3,0-6.3,0-10c0-2.7,0-5,0-6.9s0-4.4-0.1-7.7c-3.2,0-6.1,0-8.6,0
	s-4,0-4.5,0v-8c1.5,0,4,0,7.5,0s6.9,0,10.3,0c4,0,7.8,0,11.4,0c3.6,0,5.8,0,6.6,0L172.8,70.5L172.8,70.5z M82.1,117.6
	c-0.3,0.8-2.4,5.6-6.2,14.2s-7.1,16.3-10.1,23.2h-9.6c-3.1-7.2-6.1-14.1-9-20.8s-5.2-12.1-7-16.5l9.6-3.1c0.2,0.8,1.7,4.5,4.2,10.9
	c2.5,6.5,5,12.4,7.2,17.9h0.2c2.4-5.9,4.9-12,7.4-18.3c2.6-6.3,3.9-9.8,4.2-10.5L82.1,117.6z M123.8,152.3l-9.6,3.2
	c-0.2-0.6-0.7-2.1-1.5-4.2s-1.8-4.7-2.9-7.4H95c-1.1,2.8-2.1,5.3-2.9,7.5s-1.3,3.6-1.5,4.2l-9-3.1c0.5-1.2,2.6-5.8,6.1-13.9
	c3.5-8.1,6.9-15.9,10.2-23.4h9.9c3.4,7.8,6.8,15.9,10.3,24C121.7,147.3,123.6,151.7,123.8,152.3z M107.6,137.8
	c-0.7-2-1.6-4.2-2.4-6.6c-0.9-2.4-1.8-4.7-2.7-7.1h-0.1c-0.7,1.9-1.6,4.2-2.7,7c-1,2.8-1.8,5-2.5,6.6l0,0L107.6,137.8L107.6,137.8z
	 M156.6,154.6c-0.7,0-2.7,0-5.8,0s-6.1,0-9,0c-2.3,0-4.6,0-6.8,0s-4.3,0-6.4,0c0-3.3,0-6.8,0.1-10.6s0-7.1,0-10c0-5.1,0-9.2,0-12.3
	s-0.1-5.2-0.1-6.3h9.7c0,2.4,0,5-0.1,7.9c0,2.9,0,5.6,0,8.1c0,3.8,0,7.1,0,10.1s0,4.7,0,5.1c0.9,0,1.9,0,3,0s2.1,0,3,0
	c2.6,0,5.1,0,7.6,0s4,0,4.6,0v8H156.6z M190.7,154.6c-0.7,0-2.7,0-5.8,0s-6.1,0-9,0c-2.3,0-4.6,0-6.8,0s-4.3,0-6.4,0
	c0-3.3,0-6.8,0.1-10.6s0-7.1,0-10c0-5.1,0-9.2,0-12.3s-0.1-5.2-0.1-6.3h9.7c0,2.4,0,5-0.1,7.9c0,2.9,0,5.6,0,8.1c0,3.8,0,7.1,0,10.1
	s0,4.7,0,5.1c0.9,0,1.9,0,3,0s2.1,0,3,0c2.6,0,5.1,0,7.6,0s4,0,4.6,0v8H190.7z M225.8,154.6c-0.7,0-2.6,0-5.8,0s-6.4,0-9.5,0
	c-2.7,0-5.4,0-7.9,0s-4.4,0-5.6,0c0-1,0-3.3,0.1-6.8c0-3.5,0-7.9,0-13.2c0-2.2,0-5.1,0-8.6s-0.1-7-0.1-10.6c1.3,0,3.2,0,5.7,0
	s4.9,0,7.4,0c3.4,0,6.7,0,9.9,0s5.1,0,5.5,0v7.2c-0.3,0-1.6,0-3.8,0s-4.5,0-6.7,0c-1.3,0-2.8,0-4.6,0s-3.1,0-4.1,0c0,1.5,0,3,0,4.6
	s0,3.1,0,4.4c1,0,2.3,0,3.9,0s2.9,0,3.9,0c2.5,0,4.9,0,7.1,0s3.6,0,4.2,0v5.8c-0.4,0-1.9,0-4.5,0s-4.8,0-6.6,0c-1,0-2.3,0-3.9,0
	s-2.9,0-4,0c0,2.3,0,4.2,0,5.9c0,1.6,0,3,0,4c1.2,0,2.7,0,4.7,0c1.9,0,3.7,0,5.3,0c2.2,0,4.2,0,6.1,0c1.8,0,3,0,3.5,0L225.8,154.6
	L225.8,154.6z M266.8,117.9c-0.5,0.8-2.4,3.5-5.8,8.3c-3.4,4.8-6.2,8.8-8.3,12c0,3.2,0,6.4,0,9.4s0.1,5.4,0.1,7h-9.7
	c0-1.5,0.1-3.7,0.1-6.8c0-3,0-6.2,0-9.4c-2.2-3.3-4.9-7.2-8.1-11.8c-3.2-4.6-5.2-7.4-5.9-8.6l9-3.5c0.6,1.1,1.9,3.2,3.9,6.2
	s4,5.9,6,8.9h0.1c2.2-3.3,4.3-6.4,6.4-9.4c2.1-3,3.3-4.9,3.7-5.6L266.8,117.9z M102,26c-0.3,0-0.9,0-1.9,0s-2,0-3.3,0
	c0,1.2,0,2.2,0,3s0,1.7,0,2.9c0,1.3,0,2.6,0,3.9s0,2.2,0,2.8h-3.9c0-0.6,0-1.5,0-2.7s0-2.5,0-4c0-1.1,0-2,0-2.8s0-1.8,0-3.1
	c-1.3,0-2.4,0-3.4,0s-1.6,0-1.8,0v-3.2c0.6,0,1.6,0,3,0s2.8,0,4.1,0c1.6,0,3.1,0,4.6,0s2.3,0,2.6,0L102,26L102,26z M118.9,38.5H115
	c0-0.5,0-1.2,0-2.3s0-2.5,0-4.2c-0.3,0-0.8,0-1.7,0s-1.6,0-2.1,0c-0.6,0-1.3,0-2,0c-0.8,0-1.2,0-1.5,0c0,1.6,0,3,0,4.1s0,1.9,0,2.4
	h-3.9c0-0.6,0-1.4,0-2.5s0-3.1,0-6c0-0.9,0-2,0-3.2s0-2.6,0-4h3.9c0,1.1,0,2.2,0,3.1s0,1.9,0,2.9c0.2,0,0.7,0,1.3,0s1.4,0,2.2,0
	c0.7,0,1.4,0,2.2,0s1.3,0,1.6,0c0-0.9,0-1.9,0-2.9s0-2,0-3.1h3.9c0,1.3,0,2.7,0,4.2s0,2.7,0,3.7c0,2,0,3.6,0,5S118.9,38,118.9,38.5z
	 M134.6,38.5c-0.3,0-1.1,0-2.3,0s-2.5,0-3.8,0c-1.1,0-2.1,0-3.2,0s-1.8,0-2.2,0c0-0.4,0-1.3,0-2.7s0-3.2,0-5.3c0-0.9,0-2,0-3.4
	s0-2.8,0-4.3c0.5,0,1.3,0,2.3,0s2,0,3,0c1.4,0,2.7,0,4,0s2,0,2.2,0v2.9c-0.1,0-0.6,0-1.5,0s-1.8,0-2.7,0c-0.5,0-1.1,0-1.8,0
	s-1.2,0-1.6,0c0,0.6,0,1.2,0,1.9c0,0.6,0,1.2,0,1.8c0.4,0,0.9,0,1.6,0s1.1,0,1.6,0c1,0,1.9,0,2.8,0s1.4,0,1.7,0v2.3
	c-0.2,0-0.8,0-1.8,0s-1.9,0-2.6,0c-0.4,0-0.9,0-1.6,0s-1.2,0-1.6,0c0,0.9,0,1.7,0,2.3s0,1.2,0,1.6c0.5,0,1.1,0,1.9,0s1.5,0,2.1,0
	c0.9,0,1.7,0,2.4,0s1.2,0,1.4,0L134.6,38.5L134.6,38.5z M156.6,30.4c0,0.6,0,1.2,0,2c0,0.8,0,1.4,0,1.9c0,0.7,0,1.5,0,2.2s0,1.4,0,2
	c-0.1,0-0.5,0.1-1.1,0.1s-1.1,0.1-1.6,0.1c-1.8,0-3.4-0.2-4.8-0.5s-2.7-1-3.9-2c-0.8-0.6-1.4-1.4-1.9-2.3s-0.7-2-0.7-3.2
	c0-1.3,0.3-2.5,1-3.5s1.6-1.9,2.8-2.6c1-0.6,2.1-1,3.5-1.4s2.8-0.5,4.4-0.5c0.2,0,0.4,0,0.5,0s0.3,0,0.5,0l0.4,3.2
	c-0.1,0-0.2,0-0.4,0s-0.4,0-0.6,0c-0.8,0-1.7,0.1-2.6,0.2s-1.7,0.4-2.4,0.6c-1,0.4-1.8,1-2.3,1.7s-0.9,1.5-0.9,2.4
	c0,1,0.2,1.8,0.7,2.5s1,1.2,1.7,1.6c0.6,0.3,1.1,0.5,1.8,0.7s1.3,0.2,2,0.3c0-0.2,0-0.7,0-1.6s0-2.2,0-3.9L156.6,30.4L156.6,30.4z
	 M174.5,37.4l-3.6,1.4c-0.3-0.4-0.9-1.2-1.7-2.3c-0.9-1.1-2.1-2.8-3.9-5l0.1-0.2c0.3,0,0.6-0.2,1-0.4s0.8-0.5,1.1-0.7
	c0.3-0.3,0.5-0.6,0.7-0.9s0.2-0.7,0.2-1.2s-0.1-0.9-0.4-1.3s-0.6-0.6-1-0.8c-0.4-0.1-0.7-0.2-1.1-0.3s-0.7,0-1.1,0
	c-0.2,0-0.4,0-0.5,0s-0.2,0-0.2,0c0,0.9,0,1.9,0,2.9s0,1.9,0,2.6c0,1.3,0,2.7,0,4.2s0,2.6,0,3.3h-3.9c0-0.6,0-1.5,0-2.7s0-3,0-5.3
	c0-0.6,0-1.5,0-2.7s0-2.8,0-5c0.2,0,0.7,0,1.4,0s1.4,0,2,0c1.2,0,2.2,0,3,0.1s1.7,0.2,2.4,0.5c1.1,0.4,1.9,0.9,2.4,1.6
	s0.8,1.5,0.8,2.4c0,1-0.3,1.9-0.8,2.6c-0.6,0.7-1.1,1.2-1.7,1.6v0.1c0.8,1,1.7,2.1,2.6,3.1C173.2,35.7,174,36.7,174.5,37.4z
	 M188,38.5c-0.3,0-1.1,0-2.3,0s-2.5,0-3.8,0c-1.1,0-2.1,0-3.2,0s-1.8,0-2.2,0c0-0.4,0-1.3,0-2.7s0-3.2,0-5.3c0-0.9,0-2,0-3.4
	s0-2.8,0-4.3c0.5,0,1.3,0,2.3,0s2,0,3,0c1.4,0,2.7,0,4,0s2,0,2.2,0v2.9c-0.1,0-0.6,0-1.5,0s-1.8,0-2.7,0c-0.5,0-1.1,0-1.8,0
	s-1.2,0-1.6,0c0,0.6,0,1.2,0,1.9c0,0.6,0,1.2,0,1.8c0.4,0,0.9,0,1.6,0s1.1,0,1.6,0c1,0,1.9,0,2.8,0s1.4,0,1.7,0v2.3
	c-0.2,0-0.8,0-1.8,0s-1.9,0-2.6,0c-0.4,0-0.9,0-1.6,0s-1.2,0-1.6,0c0,0.9,0,1.7,0,2.3s0,1.2,0,1.6c0.5,0,1.1,0,1.9,0s1.5,0,2.1,0
	c0.9,0,1.7,0,2.4,0s1.2,0,1.4,0L188,38.5L188,38.5z M206.2,37.6l-3.8,1.3c-0.1-0.3-0.3-0.8-0.6-1.7s-0.7-1.9-1.1-3h-6
	c-0.5,1.1-0.9,2.1-1.2,3s-0.5,1.4-0.6,1.7l-3.6-1.2c0.2-0.5,1-2.3,2.4-5.6c1.4-3.2,2.8-6.4,4.1-9.4h4c1.3,3.1,2.7,6.3,4.1,9.6
	C205.4,35.6,206.1,37.3,206.2,37.6z M199.8,31.8c-0.3-0.8-0.6-1.7-1-2.6c-0.4-1-0.7-1.9-1.1-2.8h-0.1c-0.3,0.8-0.6,1.7-1.1,2.8
	c-0.4,1.1-0.7,2-1,2.6l0,0H199.8L199.8,31.8z M220.3,26c-0.3,0-0.9,0-1.9,0s-2,0-3.3,0c0,1.2,0,2.2,0,3s0,1.7,0,2.9
	c0,1.3,0,2.6,0,3.9s0,2.2,0,2.8h-3.9c0-0.6,0-1.5,0-2.7s0-2.5,0-4c0-1.1,0-2,0-2.8s0-1.8,0-3.1c-1.3,0-2.4,0-3.4,0s-1.6,0-1.8,0
	v-3.2c0.6,0,1.6,0,3,0s2.8,0,4.1,0c1.6,0,3.1,0,4.6,0s2.3,0,2.6,0L220.3,26L220.3,26z"/>
<path d="M287.5,220.6c10.8-21.1,16.6-44.8,16.6-68.6c0-83-67.6-150.5-150.8-150.5S2.5,69,2.5,152c0,30.6,9.2,60.1,26.5,85.2
	c16.9,24.5,40.3,43.3,67.8,54.4L86.9,307c0,0,79.4-121,88.5-121.1c2.3,0,9.7,9.7,19.1,23.5L131.1,306c0,0,84.2-122.2,95.3-130.6
	c4,1.6,7.8,3.2,11.3,3.2c3.3,0,6-1.3,10.8-3.2C266.9,190.6,343,306,343,306L287.5,220.6z M251,164.4c0,0-7.5,6.2-13.2,6.2
	c-5.3,0-13.6-6.2-13.6-6.2l-26.9,41L176,168.3L97.3,290.6c-27.4-11-50.7-29.7-67.5-54.1C12.6,211.6,3.5,182.4,3.5,152
	C3.5,69.5,70.7,2.5,153.3,2.5s149.8,67,149.8,149.5c0,23.5-5.6,46.8-16.2,67.7L251,164.4z"/>
<g id="Guides">
</g>
</svg>
